<svg width="32" height="32" viewBox="0 0 32 32" fill="none" xmlns="http://www.w3.org/2000/svg">
<path d="M12.1737 0.130062C10.9284 0.418496 10.194 1.3479 10.1142 2.75802C10.0024 4.56875 10.9444 5.72249 12.7006 5.8667C14.9996 6.05899 16.5004 3.79959 15.5265 1.63633C15.1912 0.883196 14.5845 0.402472 13.6745 0.146086C12.956 -0.0462041 12.9401 -0.0462041 12.1737 0.130062Z" fill="#A3A3A3"/>
<path d="M23.0622 0.194223C22.3598 0.514706 22.0085 1.12362 22.0245 2.00495C22.0245 2.91833 22.4396 3.51122 23.2538 3.78363C24.8823 4.32845 26.3352 2.79013 25.6646 1.18772C25.2495 0.210247 24.0521 -0.254453 23.0622 0.194223Z" fill="#A3A3A3"/>
<path d="M18.3684 6.26749C15.75 7.24496 14.4728 9.87292 15.271 12.597C15.6063 13.7027 16.8197 15.0327 17.9373 15.5134C20.3321 16.555 23.158 15.5134 24.3075 13.1739C24.8823 11.9881 24.9302 10.2094 24.4193 9.07172C23.5412 7.16484 22.1682 6.20339 20.1405 6.10725C19.3902 6.0752 18.7196 6.1393 18.3684 6.26749ZM20.9388 9.18388C21.5455 9.50437 21.8967 10.1934 21.8967 11.0908C21.8967 11.6837 21.801 11.908 21.3539 12.3727C20.859 12.9015 20.7472 12.9496 19.917 12.9496C18.7036 12.9496 18.081 12.4208 17.9533 11.283C17.7457 9.52039 19.3742 8.38268 20.9388 9.18388Z" fill="#A3A3A3"/>
<path d="M4.86151 12.1644C2.5944 12.597 0.822226 14.2475 0.263432 16.3948C-0.0878105 17.7728 -0.0878105 26.2336 0.263432 27.6117C0.726432 29.4224 2.00368 30.8325 3.85568 31.5857C4.73378 31.9382 4.76572 31.9382 15.271 31.9863C26.3032 32.0343 27.1813 31.9863 28.5544 31.3453C29.5602 30.8646 30.6938 29.7108 31.2526 28.5731L31.7156 27.6117V21.9872V16.3787L31.1727 15.3051C30.5181 14.0232 29.7199 13.254 28.3788 12.6131C27.0856 11.9881 26.9419 12.0042 26.6864 12.8214C26.5747 13.206 26.3511 13.7828 26.1915 14.1033C25.7923 14.8885 25.8083 15.0327 26.2873 15.0327C26.8461 15.0327 27.8679 15.5775 28.267 16.0903C28.8897 16.8755 28.9535 17.4844 28.8897 22.3237C28.8418 27.5155 28.8258 27.5796 27.6922 28.4449L27.1175 28.8936L16.197 28.9417C5.69172 28.9737 5.24468 28.9737 4.57413 28.6693C4.11113 28.4609 3.72796 28.1244 3.42461 27.6758L2.97757 26.9867V21.9872V16.9877L3.45654 16.2826C3.82375 15.7698 4.17499 15.4974 4.81361 15.241C5.65979 14.8885 5.86734 14.8725 9.81083 14.9205C12.062 14.9366 13.914 14.8885 13.914 14.8244C13.914 14.7603 13.7703 14.4238 13.5947 14.0873C13.435 13.7508 13.2115 13.1419 13.0997 12.7252L12.9241 11.9881L9.2201 12.0042C7.19248 12.0202 5.22872 12.0843 4.86151 12.1644Z" fill="#A3A3A3"/>
<path d="M8.59745 18.3017C6.37824 19.1029 5.37241 21.7629 6.50596 23.83C7.00089 24.7594 7.9269 25.5285 8.83693 25.7849C9.2201 25.8811 11.9981 25.9291 16.2769 25.8971L23.0942 25.849L23.8445 25.4164C26.5427 23.814 26.4469 19.9842 23.6689 18.526L22.8228 18.0773H16.0055C10.7368 18.0933 9.07642 18.1414 8.59745 18.3017ZM23.0303 20.2726C24.2437 20.9937 24.2437 23.0127 23.0303 23.7338C22.6152 23.9742 21.8967 24.0062 15.8618 24.0062H9.15624L8.66131 23.5896C7.65548 22.7403 7.65548 21.2501 8.66131 20.4008L9.15624 20.0002H15.8618C21.8967 20.0002 22.6152 20.0323 23.0303 20.2726Z" fill="#A3A3A3"/>
</svg>
