<svg width="26" height="20" viewBox="0 0 26 20" fill="none" xmlns="http://www.w3.org/2000/svg">
<path d="M0.42698 10.7571C0.153584 10.4836 -4.42042e-07 10.1127 -4.25139e-07 9.72605C-4.08236e-07 9.33935 0.153584 8.96848 0.42698 8.695L8.67677 0.445213C8.8113 0.305927 8.97222 0.194828 9.15014 0.118398C9.32806 0.0419681 9.51943 0.00173813 9.71306 5.5486e-05C9.9067 -0.00162715 10.0987 0.0352716 10.278 0.108598C10.4572 0.181924 10.62 0.29021 10.7569 0.427137C10.8939 0.564064 11.0021 0.726889 11.0755 0.906113C11.1488 1.08534 11.1857 1.27737 11.184 1.47101C11.1823 1.66464 11.1421 1.856 11.0657 2.03393C10.9892 2.21185 10.8781 2.37277 10.7389 2.5073L4.97844 8.26771L24.2911 8.26771C24.6779 8.26771 25.0489 8.42136 25.3223 8.69485C25.5958 8.96834 25.7495 9.33927 25.7495 9.72605C25.7495 10.1128 25.5958 10.4838 25.3223 10.7572C25.0489 11.0307 24.6779 11.1844 24.2911 11.1844L4.97844 11.1844L10.7389 16.9448C11.0045 17.2198 11.1515 17.5882 11.1482 17.9706C11.1448 18.353 10.9915 18.7187 10.7211 18.9891C10.4507 19.2595 10.0849 19.4129 9.70256 19.4162C9.32019 19.4195 8.95182 19.2725 8.67677 19.0069L0.42698 10.7571Z" fill="#075493"/>
</svg>
