<svg width="26" height="20" viewBox="0 0 26 20" fill="none" xmlns="http://www.w3.org/2000/svg">
<path d="M25.4478 8.95104C25.7212 9.22452 25.8747 9.59539 25.8747 9.98208C25.8747 10.3688 25.7212 10.7396 25.4478 11.0131L17.198 19.2629C17.0634 19.4022 16.9025 19.5133 16.7246 19.5897C16.5467 19.6662 16.3553 19.7064 16.1617 19.7081C15.968 19.7098 15.776 19.6729 15.5968 19.5995C15.4176 19.5262 15.2547 19.4179 15.1178 19.281C14.9809 19.1441 14.8726 18.9812 14.7993 18.802C14.7259 18.6228 14.689 18.4308 14.6907 18.2371C14.6924 18.0435 14.7326 17.8521 14.8091 17.6742C14.8855 17.4963 14.9966 17.3354 15.1359 17.2008L20.8963 11.4404L1.58359 11.4404C1.19682 11.4404 0.825885 11.2868 0.552394 11.0133C0.278904 10.7398 0.125261 10.3689 0.125261 9.98209C0.125261 9.59531 0.278904 9.22438 0.552394 8.95089C0.825885 8.6774 1.19682 8.52375 1.58359 8.52375L20.8963 8.52375L15.1359 2.76333C14.8702 2.48829 14.7232 2.11991 14.7266 1.73754C14.7299 1.35517 14.8833 0.989403 15.1536 0.719016C15.424 0.44863 15.7898 0.295256 16.1722 0.291933C16.5545 0.288611 16.9229 0.435603 17.198 0.70125L25.4478 8.95104Z" fill="white"/>
</svg>
