<svg width="24" height="26" viewBox="0 0 24 26" fill="none" xmlns="http://www.w3.org/2000/svg">
<path d="M2.2 18.4V22.6C2.2 23.2365 2.45286 23.847 2.90294 24.2971C3.35303 24.7471 3.96348 25 4.6 25H19C19.6365 25 20.247 24.7471 20.6971 24.2971C21.1471 23.847 21.4 23.2365 21.4 22.6V18.4M1 15.4V14.2C1 13.5635 1.25286 12.953 1.70294 12.5029C2.15303 12.0529 2.76348 11.8 3.4 11.8H20.2C20.8365 11.8 21.447 12.0529 21.8971 12.5029C22.3471 12.953 22.6 13.5635 22.6 14.2V15.4M11.8 8.2V11.8M11.8 8.2C13.3144 8.2 14.2 7.0384 14.2 5.05C14.2 3.0616 11.8 1 11.8 1C11.8 1 9.4 3.0616 9.4 5.05C9.4 7.0384 10.2856 8.2 11.8 8.2Z" stroke="#AAAAAA" stroke-width="1.5" stroke-linecap="round" stroke-linejoin="round"/>
<path d="M1 15.3999C1 16.3547 1.37928 17.2704 2.05442 17.9455C2.72955 18.6206 3.64522 18.9999 4.6 18.9999C5.55478 18.9999 6.47045 18.6206 7.14559 17.9455C7.82072 17.2704 8.2 16.3547 8.2 15.3999C8.2 16.3547 8.57928 17.2704 9.25442 17.9455C9.92955 18.6206 10.8452 18.9999 11.8 18.9999C12.7548 18.9999 13.6705 18.6206 14.3456 17.9455C15.0207 17.2704 15.4 16.3547 15.4 15.3999C15.4 16.3547 15.7793 17.2704 16.4544 17.9455C17.1295 18.6206 18.0452 18.9999 19 18.9999C19.9548 18.9999 20.8705 18.6206 21.5456 17.9455C22.2207 17.2704 22.6 16.3547 22.6 15.3999" stroke="#AAAAAA" stroke-width="1.5" stroke-linecap="round" stroke-linejoin="round"/>
</svg>
