<svg width="36" height="32" viewBox="0 0 36 32" fill="none" xmlns="http://www.w3.org/2000/svg">
<path d="M17.4379 0.163019C17.2293 0.243254 16.122 1.12583 14.9506 2.12074C11.9498 4.70428 9.12559 7.11131 4.37572 11.123C2.04892 13.0807 0.155394 14.8138 0.0751599 15.0385C-0.245777 15.8889 0.508425 16.9962 1.43914 16.9962C1.64775 16.9962 2.25753 16.6752 2.78708 16.2741C3.31663 15.8729 3.78199 15.552 3.83013 15.552C3.87827 15.552 3.94245 18.3923 3.97455 21.8423L4.02269 28.1488L4.48805 29.1597C5.04969 30.3793 6.02855 31.31 7.19997 31.7112C7.97022 31.984 8.80465 32 17.9835 32C27.1623 32 27.9967 31.984 28.767 31.7112C29.8742 31.326 30.9493 30.3472 31.4949 29.2239L31.9442 28.3092L32.0245 21.8584L32.1047 15.4075L33.1317 16.2099C34.2068 17.0443 34.7364 17.1727 35.3462 16.7555C35.8597 16.3864 36.1164 15.5038 35.8436 14.9582C35.7313 14.7175 34.4155 13.4819 32.907 12.2142C27.2906 7.46434 24.001 4.67219 21.4977 2.52191C19.2191 0.580239 18.3365 -0.0455886 17.9353 0.00255203C17.8711 0.00255203 17.6465 0.0827849 17.4379 0.163019ZM19.1709 4.43149C19.7486 4.92894 22.2359 7.03108 24.691 9.10112L29.136 12.8721V20.0772C29.136 27.892 29.12 27.9883 28.2535 28.6783C27.8523 28.9992 27.6116 29.0313 25.9106 29.0313H24.0171L23.9689 23.9284C23.9208 18.2318 23.9048 18.1676 22.7654 17.4455C22.1877 17.0925 22.0112 17.0764 18.5451 17.0283C16.5553 16.9962 14.6297 17.0122 14.2445 17.0764C13.5545 17.1727 12.6078 17.8467 12.2708 18.4725C12.1745 18.649 12.1103 20.6388 12.1264 23.6396C12.1264 26.3194 12.0943 28.6302 12.0301 28.7746C11.9498 28.9992 11.6449 29.0313 10.0082 29.0313H8.08255L7.53695 28.4857L6.99136 27.9401V20.35V12.7438L9.65514 10.4972C11.1154 9.26159 13.5545 7.19155 15.0629 5.89175C16.5874 4.59195 17.8872 3.53286 17.9674 3.53286C18.0476 3.51681 18.5932 3.91799 19.1709 4.43149ZM20.9842 24.5382L21.0324 29.0313H18.0316H15.0148V24.5382V20.0451H17.9835H20.9361L20.9842 24.5382Z" fill="#A3A3A3"/>
</svg>
