<svg width="40" height="32" viewBox="0 0 40 32" fill="none" xmlns="http://www.w3.org/2000/svg">
<path d="M14.4504 0.145535C14.2423 0.225571 12.8177 1.33006 11.265 2.57862C9.7283 3.84318 7.79144 5.41188 6.97507 6.06817C2.0769 10.0379 0.460179 11.3825 0.252086 11.7027C-0.404205 12.6311 0.300108 13.9117 1.45262 13.9117C1.88481 13.9117 2.33301 13.6555 3.10135 12.9992C3.45351 12.7111 3.78966 12.471 3.86969 12.471C3.93372 12.471 3.99775 14.8241 3.99775 17.7053C3.99775 21.0668 4.06178 23.1798 4.17383 23.596C4.41394 24.4283 5.48641 25.5008 6.31878 25.7409C6.71896 25.853 8.78388 25.917 11.9213 25.917H16.8835L16.8515 24.5244L16.8355 23.1157L12.0653 23.0677C8.87992 23.0517 7.23119 22.9717 7.08712 22.8596C6.92705 22.7156 6.87903 21.419 6.87903 16.2967V9.92588L9.29611 7.95701C10.6247 6.86852 12.4015 5.42788 13.2339 4.73958C14.0662 4.06728 14.8186 3.50703 14.9146 3.50703C15.0747 3.50703 18.6763 6.3563 21.8937 9.01348L23.0462 9.98991V12.423V14.8721H24.4869H25.9275V13.6715C25.9275 13.0153 25.9755 12.471 26.0235 12.471C26.0716 12.471 26.5038 12.7912 27 13.1913C27.6403 13.7196 28.0244 13.9117 28.4086 13.9117C29.4331 13.9117 30.1534 12.9032 29.7532 11.9588C29.5931 11.5906 27.6723 9.89387 25.0631 7.82895C24.4548 7.34874 20.1649 3.85919 17.6198 1.77826C16.0031 0.449671 15.2668 -0.0305424 14.9146 0.00147057C14.8506 0.00147057 14.6425 0.0655003 14.4504 0.145535Z" fill="#A3A3A3"/>
<path d="M12.7697 12.2471C12.0974 12.5992 12.0013 12.9354 12.0013 15.0163C12.0013 16.8411 12.0173 16.9531 12.4175 17.4174L12.8337 17.9136H14.9786C16.6754 17.9136 17.1236 17.8656 17.1236 17.6895C17.1236 17.5774 17.2997 17.2093 17.5238 16.8891C17.8759 16.3609 17.9239 16.1368 17.9239 14.7762C17.9239 13.0314 17.6838 12.4231 16.9155 12.151C16.1792 11.8949 13.2819 11.9589 12.7697 12.2471Z" fill="#A3A3A3"/>
<path d="M20.4851 17.0811C19.9408 17.2251 19.6367 17.4492 19.3166 17.9135C19.0765 18.2656 19.0444 18.8899 19.0444 23.628V28.9584H17.8759C16.0511 28.9584 15.5229 29.6307 16.3713 30.8952C17.1396 32.0477 16.6914 31.9997 27.8964 31.9997C36.124 31.9997 38.0449 31.9517 38.4771 31.7756C39.1814 31.4875 39.8537 30.5911 39.8537 29.9508C39.8537 29.2145 39.3735 28.9584 37.9809 28.9584H36.8123V23.676C36.8123 19.4021 36.7643 18.2976 36.5882 17.9295C36.124 17.0331 36.092 17.0331 28.1685 17.001C24.1667 17.001 20.7092 17.0331 20.4851 17.0811ZM33.9311 24.4764V28.9584H27.9284H21.9257V24.4764V19.9944H27.9284H33.9311V24.4764Z" fill="#A3A3A3"/>
</svg>
