<svg width="62" height="66" viewBox="0 0 62 66" fill="none" xmlns="http://www.w3.org/2000/svg">
<path d="M52.395 42.1875H38.145V37.5H52.395V42.1875ZM61.895 60.9375H47.645V56.25H61.895V60.9375ZM57.145 51.5625H42.895V46.875H57.145V51.5625Z" fill="#075493"/>
<path d="M30.883 42.1875C30.8663 40.2099 30.3318 38.2701 29.3314 36.5564C28.331 34.8428 26.8987 33.4134 25.1735 32.407L42.7509 2.34375L38.6422 0L20.6468 30.7641C18.4383 30.2772 16.1413 30.3445 13.966 30.9599C11.7906 31.5753 9.80637 32.7191 8.19466 34.2867C-0.697339 42.75 -0.00858839 62.5359 0.0246616 63.375C0.0492122 63.9802 0.310232 64.5525 0.752998 64.972C1.19576 65.3915 1.78589 65.6255 2.39966 65.625H38.0033C38.5018 65.625 38.9876 65.4702 39.392 65.1826C39.7964 64.895 40.0988 64.4891 40.2564 64.0224C40.414 63.5557 40.4189 63.052 40.2703 62.5824C40.1216 62.1129 39.8271 61.7014 39.4283 61.4063C31.0208 55.1813 30.883 42.3141 30.883 42.1875ZM18.8347 35.1492C20.7355 35.1698 22.5552 35.9129 23.915 37.2238C25.2748 38.5348 26.0701 40.3126 26.1354 42.1875C26.1354 42.2766 26.1402 42.675 26.1758 43.2867L12.1633 37.1367C13.0863 36.3856 14.1514 35.8231 15.2967 35.4819C16.442 35.1407 17.6447 35.0276 18.8347 35.1492ZM27.1947 60.9375C25.2963 59.03 24.0862 56.5593 23.7509 53.9062H19.0009C19.171 56.4007 19.9606 58.8154 21.2999 60.9375H16.0203C15.0436 57.8958 14.4493 54.7472 14.2509 51.5625H9.50091C9.65407 54.7377 10.1842 57.8842 11.0803 60.9375H4.75091C4.82454 56.6344 5.43966 47.1281 9.03304 40.8914L26.9239 48.743C27.7835 53.1476 29.6161 57.3112 32.2914 60.9375H27.1947Z" fill="#075493"/>
</svg>
