<svg width="39" height="32" viewBox="0 0 39 32" fill="none" xmlns="http://www.w3.org/2000/svg">
<path d="M13.3664 0.268107C13.2852 0.430585 13.0902 0.950514 12.9277 1.4217C12.6353 2.33158 12.489 2.46156 11.1567 2.9165C10.4743 3.14396 10.3281 3.2577 10.3281 3.58265C10.3281 3.90761 10.4906 4.02134 11.4654 4.3788L12.6028 4.78499L13.009 5.90609C13.6101 7.56336 14.0326 7.54711 14.5525 5.8411C14.8775 4.76874 14.9749 4.6875 16.3235 4.21632C17.0059 3.98885 17.1521 3.87511 17.1521 3.55016C17.1521 3.2252 16.9897 3.11147 16.0311 2.75402L14.91 2.34782L14.5688 1.37296C14.3738 0.83678 14.1626 0.300603 14.0976 0.186869C13.9026 -0.089344 13.5289 -0.056848 13.3664 0.268107Z" fill="#A3A3A3"/>
<path d="M19.6543 7.83955C7.90717 17.377 7.93966 17.3445 7.79343 17.9294C7.59846 18.6281 8.0209 19.4242 8.68706 19.6517C9.38571 19.8792 9.90564 19.6842 10.8805 18.823L11.6279 18.1569L11.7091 23.7461C11.7904 29.0916 11.8066 29.3516 12.1478 29.9853C12.6678 30.9601 13.4964 31.6101 14.4713 31.8213C15.0074 31.935 18.0133 32 22.9851 32C31.3365 32 31.7914 31.9513 32.8313 31.0901C33.8874 30.1965 33.8874 30.2127 33.9686 23.8924L34.0498 18.1406L34.911 18.823C36.2595 19.8954 36.877 19.9929 37.6731 19.278C38.0306 18.953 38.1443 18.2056 37.9331 17.637C37.8681 17.4907 35.9183 15.8172 33.5949 13.9162C31.2715 12.0152 28.3306 9.6268 27.0795 8.58694C25.8122 7.56334 24.4637 6.47473 24.0737 6.19852C22.8551 5.30489 22.6764 5.36988 19.6543 7.83955ZM25.406 11.0891C26.7708 12.194 28.5906 13.6725 29.468 14.3712L31.044 15.6547L31.0115 22.2351L30.9628 28.8317L23.0014 28.8804C15.6574 28.9129 15.0237 28.8967 14.845 28.6367C14.585 28.2955 14.5363 16.2234 14.7962 15.7685C14.8775 15.606 16.2423 14.4199 17.8346 13.1363C19.4268 11.8527 21.1816 10.4229 21.7503 9.95176C22.3189 9.48057 22.8064 9.09063 22.8551 9.09063C22.9039 9.09063 24.0575 9.98425 25.406 11.0891Z" fill="#A3A3A3"/>
<path d="M20.418 18.2382C20.1742 18.4981 19.9793 18.9206 19.898 19.408C19.7518 20.3991 19.898 22.755 20.1417 23.1937C20.418 23.7137 21.3603 23.9086 23.3101 23.8437C24.9998 23.7949 25.0811 23.7787 25.4548 23.34C25.8285 22.9013 25.8447 22.7713 25.8447 20.8053C25.8447 17.897 25.9097 17.962 23.0176 17.897C20.8729 17.8482 20.8079 17.8482 20.418 18.2382Z" fill="#A3A3A3"/>
<path d="M3.16281 20.659C3.11407 20.8702 2.91909 21.4064 2.74037 21.8613C2.44791 22.69 2.43166 22.7062 1.22932 23.1449C-0.444198 23.7461 -0.411703 24.1035 1.34306 24.6722C2.43166 25.0296 2.43166 25.0459 2.77286 25.9233C2.95159 26.4107 3.09782 26.8819 3.09782 26.9469C3.09782 27.1906 3.53651 27.4668 3.78023 27.3693C3.91021 27.3206 4.18642 26.7681 4.39764 26.1507L4.78759 25.0134L5.94118 24.6397C6.80231 24.3472 7.09477 24.1848 7.12727 23.9248C7.17601 23.6486 6.98104 23.5186 5.97368 23.1449L4.75509 22.7062L4.3164 21.5039C3.99145 20.6102 3.79647 20.3015 3.58525 20.3015C3.40653 20.3015 3.2278 20.464 3.16281 20.659Z" fill="#A3A3A3"/>
</svg>
