<svg width="24" height="24" viewBox="0 0 24 24" fill="none" xmlns="http://www.w3.org/2000/svg">
<path d="M9 11C9 11.7956 9.31607 12.5587 9.87868 13.1213C10.4413 13.6839 11.2044 14 12 14C12.7956 14 13.5587 13.6839 14.1213 13.1213C14.6839 12.5587 15 11.7956 15 11C15 10.2044 14.6839 9.44129 14.1213 8.87868C13.5587 8.31607 12.7956 8 12 8C11.2044 8 10.4413 8.31607 9.87868 8.87868C9.31607 9.44129 9 10.2044 9 11Z" stroke="#075493" stroke-width="2" stroke-linecap="round" stroke-linejoin="round"/>
<path d="M12.0198 21.485C11.754 21.4878 11.4903 21.4375 11.2443 21.337C10.9982 21.2366 10.7747 21.088 10.5868 20.9L6.34278 16.657C5.35213 15.6659 4.6392 14.4319 4.27535 13.0787C3.9115 11.7254 3.9095 10.3003 4.26953 8.94603C4.62957 7.59175 5.33903 6.35581 6.32688 5.36191C7.31473 4.368 8.54632 3.65102 9.89838 3.28272C11.2504 2.91442 12.6755 2.90772 14.031 3.2633C15.3864 3.61888 16.6247 4.32427 17.6218 5.30884C18.619 6.29342 19.34 7.52264 19.7128 8.87348C20.0855 10.2243 20.0969 11.6494 19.7458 13.006" stroke="#075493" stroke-width="2" stroke-linecap="round" stroke-linejoin="round"/>
<path d="M16 22L21 17" stroke="#075493" stroke-width="2" stroke-linecap="round" stroke-linejoin="round"/>
<path d="M21 21.5V17H16.5" stroke="#075493" stroke-width="2" stroke-linecap="round" stroke-linejoin="round"/>
</svg>
