<svg width="40" height="32" viewBox="0 0 40 32" fill="none" xmlns="http://www.w3.org/2000/svg">
<path d="M18.8877 0.143055C18.0049 0.383816 17.7642 0.544323 16.9616 1.41107L16.3677 2.06915H15.1158C13.2699 2.0852 12.1303 2.77538 11.376 4.33231C11.071 4.95829 11.0549 5.32745 11.0549 10.6403C11.0549 13.7541 11.0228 16.2901 10.9747 16.2901C10.9265 16.2901 10.5895 16.0654 10.2203 15.8086C7.1546 13.5776 3.0135 16.6432 4.21731 20.2547C4.44202 20.9449 4.95565 21.5066 8.37446 24.8933C12.5798 29.0826 13.5107 29.7888 16.0628 30.784C17.7481 31.4581 18.4222 31.6186 20.4125 31.8754C23.4301 32.2446 26.6884 31.5384 28.8071 30.0777L29.5133 29.5962L28.8713 28.9863C28.5021 28.6332 28.1811 28.1677 28.133 27.8627C28.0046 27.2047 27.8762 27.1405 27.4107 27.5096C26.8168 27.9751 25.6611 28.5208 24.7784 28.7455C23.6869 29.0505 20.6212 29.0344 19.1124 28.7134C17.4431 28.3764 15.2442 27.301 13.7836 26.1293C11.8735 24.5884 6.88174 19.4682 6.88174 19.0348C6.88174 18.6335 7.53982 17.8952 7.92504 17.8952C8.05345 17.8952 8.90414 18.5854 9.80298 19.4361C10.7179 20.2868 11.6167 21.0893 11.8093 21.2177C12.3711 21.6029 13.2378 21.3622 13.6231 20.7362C13.928 20.2547 13.9441 19.8695 13.9441 12.8071V5.39166L14.2972 5.1509C14.7948 4.79778 15.3244 4.82988 15.7097 5.2151C16.0146 5.52006 16.0307 5.74477 16.0307 10.0945C16.0307 12.7429 16.0949 14.8456 16.1912 15.0863C16.2875 15.3271 16.5764 15.5999 16.9135 15.7444C17.411 15.937 17.5395 15.937 18.037 15.7444C18.3741 15.5999 18.663 15.3271 18.7593 15.0863C18.8556 14.8295 18.9198 12.4219 18.9198 9.17964C18.9198 3.03219 18.9359 2.96799 19.9471 2.96799C21.0064 2.96799 21.0064 2.93589 21.0064 9.05123C21.0064 15.2308 21.0385 15.4715 22.0176 15.7926C22.6757 16.0173 23.2696 15.8407 23.6387 15.295C23.8635 14.99 23.8956 14.2998 23.8956 10.3353C23.8956 5.92133 23.9116 5.72872 24.2326 5.3114C24.6178 4.82988 25.1636 4.76568 25.6451 5.16695C25.9661 5.43981 25.9822 5.61637 26.0143 10.2229L26.0624 15.0061L26.4958 15.4394C27.0897 16.0333 27.9243 16.0333 28.5182 15.4394C28.9516 15.0061 28.9516 15.0061 28.9997 12.2293C29.0479 9.99823 29.1121 9.4204 29.3047 9.17964C29.6899 8.76232 30.3961 8.82652 30.7813 9.3241C31.1024 9.74142 31.1184 9.93403 31.1184 15.2308C31.1184 20.6559 31.0221 22.0524 30.5406 23.4648C30.3961 23.85 30.3159 24.2032 30.348 24.2192C30.3801 24.2513 30.7332 24.155 31.1345 24.0427L31.8888 23.8179L32.2259 22.582C32.4988 21.5066 32.6432 21.2498 33.2853 20.672L34.0075 20.0139V14.8135C34.0075 10.6884 33.9594 9.43645 33.7668 8.81047C33.2692 7.12514 31.7283 6.01764 29.8825 6.01764H28.8713V5.53611C28.8713 4.78173 28.4379 3.91499 27.7156 3.17665C26.865 2.30991 25.8056 1.92469 24.5376 2.0531L23.6066 2.13335L23.0449 1.44317C22.0337 0.239359 20.3804 -0.274265 18.8877 0.143055Z" fill="#A3A3A3"/>
<path d="M4.07285 3.40151C3.39872 5.72887 3.63948 5.48811 1.00715 6.17829C0.252768 6.35485 -0.0682477 6.65981 0.0120062 7.09319C0.0601585 7.3821 0.445377 7.54261 2.32332 8.08833L3.46292 8.4254L3.91234 9.98233C4.40992 11.7158 4.60253 12.0368 5.068 11.8924C5.30876 11.8121 5.50137 11.4108 5.82239 10.3033C6.06315 9.5008 6.28786 8.73036 6.31996 8.63406C6.36811 8.5217 6.92989 8.26489 7.60402 8.07228L8.82388 7.71917L8.77573 6.91663L8.72758 6.13014L7.57192 5.82517L6.43232 5.50416L6.015 4.12379C5.40507 2.11744 5.34086 2.00509 4.89144 2.00509C4.53832 2.00509 4.45807 2.1335 4.07285 3.40151Z" fill="#A3A3A3"/>
<path d="M18.7112 20.1904C18.5667 20.3028 18.358 20.7362 18.2296 21.1695C18.021 21.9239 17.9889 21.9721 17.0579 22.2931C16.2554 22.582 16.1109 22.6944 16.1109 23.0314C16.1109 23.3685 16.2233 23.4487 16.9135 23.6414C17.9728 23.9463 18.0531 24.0266 18.2778 24.9736C18.5988 26.3218 19.2729 26.2416 19.7063 24.797C19.9631 23.9624 19.9952 23.9303 20.7336 23.7377C22.2584 23.3524 22.3386 22.7907 20.9101 22.3091C19.9792 21.9881 19.9631 21.9721 19.6742 21.0732C19.3692 20.1262 19.1124 19.8855 18.7112 20.1904Z" fill="#A3A3A3"/>
<path d="M34.5051 22.4216C34.4088 22.6303 34.168 23.4168 33.9433 24.1712L33.526 25.5676L31.9049 26.017C29.3528 26.7232 29.3849 27.3171 32.0012 28.0233C32.7556 28.216 33.4297 28.4567 33.51 28.553C33.5902 28.6493 33.8149 29.3235 34.0075 30.0618C34.6977 32.6299 35.2916 32.646 35.9978 30.1099L36.4472 28.4888L37.6029 28.1678C39.7537 27.5418 39.8661 27.4776 39.8661 26.964C39.8661 26.5146 39.8179 26.4825 38.261 26.0491C37.3782 25.7923 36.6078 25.5355 36.5436 25.4713C36.4794 25.4071 36.2225 24.6366 35.9657 23.7538C35.5484 22.2611 35.4842 22.1488 35.0829 22.1006C34.7619 22.0525 34.6175 22.1327 34.5051 22.4216Z" fill="#A3A3A3"/>
</svg>
