<?xml version="1.0" standalone="no"?>
<!DOCTYPE svg PUBLIC "-//W3C//DTD SVG 20010904//EN"
 "http://www.w3.org/TR/2001/REC-SVG-20010904/DTD/svg10.dtd">
<svg version="1.0" xmlns="http://www.w3.org/2000/svg"
 width="241.000000pt" height="215.000000pt" viewBox="0 0 241.000000 215.000000"
 preserveAspectRatio="xMidYMid meet">

<g transform="translate(0.000000,215.000000) scale(0.100000,-0.100000)"
fill="#000000" stroke="none">
<path d="M272 1951 c-52 -33 -74 -77 -69 -141 3 -55 22 -93 254 -517 57 -105
46 -101 348 -137 380 -46 460 -57 468 -65 5 -5 7 -17 5 -27 -4 -24 -43 -30
-620 -99 -65 -8 -126 -18 -136 -24 -16 -8 -205 -345 -291 -518 -51 -103 -36
-186 41 -233 53 -32 96 -26 246 39 75 32 274 118 442 191 168 73 366 158 440
190 519 223 746 323 770 340 31 22 60 85 60 128 -1 35 -28 85 -60 110 -23 18
-118 61 -582 261 -104 45 -272 117 -375 162 -104 45 -269 116 -368 159 -99 43
-238 103 -310 134 -153 67 -213 78 -263 47z"/>
</g>
</svg>
