<svg width="22" height="22" viewBox="0 0 22 22" fill="none" xmlns="http://www.w3.org/2000/svg">
<path d="M22 11L19.56 8.07714L19.9 4.21143L16.29 3.35238L14.4 0L11 1.52952L7.6 0L5.71 3.34191L2.1 4.19048L2.44 8.06667L0 11L2.44 13.9229L2.1 17.799L5.71 18.6581L7.6 22L11 20.46L14.4 21.9895L16.29 18.6476L19.9 17.7886L19.56 13.9229L22 11ZM8.38 15.201L6 12.6867C5.9073 12.5897 5.83375 12.4746 5.78357 12.3479C5.73339 12.2212 5.70756 12.0853 5.70756 11.9481C5.70756 11.8109 5.73339 11.675 5.78357 11.5483C5.83375 11.4216 5.9073 11.3064 6 11.2095L6.07 11.1362C6.46 10.7276 7.1 10.7276 7.49 11.1362L9.1 12.8333L14.25 7.42762C14.64 7.01905 15.28 7.01905 15.67 7.42762L15.74 7.50095C16.13 7.90952 16.13 8.56952 15.74 8.9781L9.82 15.201C9.41 15.6095 8.78 15.6095 8.38 15.201Z" fill="#075493"/>
</svg>
