<svg width="21" height="20" viewBox="0 0 21 20" fill="none" xmlns="http://www.w3.org/2000/svg">
<path d="M1 18.9831L2.65 15.1831C1.38766 13.3912 0.822667 11.2002 1.06104 9.02123C1.29942 6.8423 2.32479 4.82526 3.94471 3.34864C5.56463 1.87203 7.66775 1.03734 9.85938 1.00122C12.051 0.965109 14.1805 1.73005 15.8482 3.1525C17.5159 4.57494 18.6071 6.5571 18.9172 8.72699C19.2272 10.8969 18.7347 13.1053 17.5321 14.9379C16.3295 16.7705 14.4994 18.1011 12.3854 18.6802C10.2713 19.2593 8.01863 19.047 6.05 18.0831L1 18.9831Z" stroke="#075493" stroke-width="2" stroke-linecap="round" stroke-linejoin="round"/>
<path d="M7 7.98291C7 8.11552 7.05268 8.2427 7.14645 8.33646C7.24021 8.43023 7.36739 8.48291 7.5 8.48291C7.63261 8.48291 7.75979 8.43023 7.85355 8.33646C7.94732 8.2427 8 8.11552 8 7.98291V6.98291C8 6.8503 7.94732 6.72312 7.85355 6.62936C7.75979 6.53559 7.63261 6.48291 7.5 6.48291C7.36739 6.48291 7.24021 6.53559 7.14645 6.62936C7.05268 6.72312 7 6.8503 7 6.98291V7.98291ZM7 7.98291C7 9.30899 7.52678 10.5808 8.46447 11.5184C9.40215 12.4561 10.6739 12.9829 12 12.9829M12 12.9829H13C13.1326 12.9829 13.2598 12.9302 13.3536 12.8365C13.4473 12.7427 13.5 12.6155 13.5 12.4829C13.5 12.3503 13.4473 12.2231 13.3536 12.1294C13.2598 12.0356 13.1326 11.9829 13 11.9829H12C11.8674 11.9829 11.7402 12.0356 11.6464 12.1294C11.5527 12.2231 11.5 12.3503 11.5 12.4829C11.5 12.6155 11.5527 12.7427 11.6464 12.8365C11.7402 12.9302 11.8674 12.9829 12 12.9829Z" stroke="#075493" stroke-width="2" stroke-linecap="round" stroke-linejoin="round"/>
</svg>
