<svg width="286" height="307" viewBox="0 0 286 307" fill="none" xmlns="http://www.w3.org/2000/svg">
<g clip-path="url(#clip0_3_221)">
<path d="M197.81 225.71C192.02 223.84 185.09 218.56 182.23 204.48C179.251 204.044 176.239 203.877 173.23 203.98C174.63 208.54 176.1 213.2 177.56 217.69C181.33 229.25 195.56 234.91 207.08 233.69C210.88 233.393 214.534 232.096 217.67 229.93C216.704 228.101 215.636 226.328 214.47 224.62C211.232 225.937 207.775 226.635 204.28 226.68C202.086 226.695 199.903 226.368 197.81 225.71Z" fill="#AFDFE2"/>
<path d="M198.73 222.85C203.3 224.32 208.28 223.7 212.64 222.11C205.932 213.327 196.269 207.27 185.44 205.06C187.64 214.63 192.14 220.73 198.73 222.85Z" fill="#AFDFE2"/>
<path d="M166.81 193.14C163.33 181.44 160.81 172.47 160.81 172.32L160.14 170.01L152.77 169.43C153.71 177.18 154.97 186.37 156.63 196.92C160.08 195.75 163.46 194.48 166.81 193.14Z" fill="#BFEAEF"/>
<path d="M147.62 199.76C149.68 199.16 151.73 198.52 153.77 197.86C152.02 186.79 150.77 177.21 149.77 169.18L140.07 168.42C139.9 169.67 139.73 170.92 139.56 172.15C138 183 136.62 193.31 136 202.72C139.913 201.853 143.787 200.867 147.62 199.76Z" fill="#BFEAEF"/>
<path d="M133 203.38C133.56 193.63 135 182.96 136.58 171.74C136.74 170.57 136.9 169.38 137.06 168.18L124.81 167.18C118.27 181.827 114 194.873 112 206.32C119.057 205.799 126.072 204.817 133 203.38Z" fill="#BFEAEF"/>
<path d="M109 206.51C110.86 195.51 114.72 183.14 120.6 169.37C119.17 170.37 117.77 171.37 116.41 172.37C111.087 176.259 106.867 181.467 104.165 187.48C101.463 193.494 100.372 200.107 101 206.67C103.62 206.72 106.31 206.65 109 206.51Z" fill="#BFEAEF"/>
<path d="M108 214.34H106.34L102.72 215.34C103.916 219.102 105.655 222.669 107.88 225.93C107.616 222.069 107.656 218.194 108 214.34Z" fill="#A4DADD"/>
<path d="M129.62 211.9C123.455 212.933 117.234 213.601 110.99 213.9C110.451 219.261 110.575 224.669 111.36 230C114.99 233.945 119.412 237.078 124.338 239.194C129.263 241.31 134.58 242.362 139.94 242.28H141.3C134.96 234.4 132.81 223.79 132.76 211.28C131.71 211.51 130.67 211.72 129.62 211.9Z" fill="#A4DADD"/>
<path d="M155.44 209.23C155.29 208.02 155.12 206.8 154.95 205.55C153.04 206.18 151.11 206.79 149.17 207.36C144.75 208.67 140.27 209.77 135.75 210.72C135.75 223.86 138.06 234.78 145.26 242.26H171.51C170.68 241.84 169.9 241.4 169.16 240.94C158.78 234.48 157.38 223.88 155.44 209.23Z" fill="#A4DADD"/>
<path d="M207.39 236.35C206.267 236.471 205.139 236.531 204.01 236.53C192.01 236.53 178.58 230.17 174.7 218.29C172.77 212.37 170.84 206.17 169.05 200.29C165.37 201.85 161.637 203.283 157.85 204.59C158.05 206.04 158.23 207.45 158.42 208.84C160.8 226.84 162.16 237.11 179.67 242.28H222.79C221.78 238.889 220.524 235.577 219.03 232.37C215.542 234.646 211.541 236.014 207.39 236.35Z" fill="#A4DADD"/>
<path d="M196.77 118.46C203.388 118.704 209.913 120.101 216.05 122.59C219.24 123.916 222.2 125.738 224.82 127.99C227.565 130.373 229.759 133.325 231.25 136.64C232.748 140.056 233.432 143.774 233.25 147.5C233.051 151.136 232.274 154.718 230.95 158.11C229.688 161.403 228.065 164.545 226.11 167.48C224.223 170.375 222.124 173.126 219.83 175.71C215.292 180.782 210.268 185.398 204.83 189.49C199.475 193.552 193.837 197.228 187.96 200.49C176.242 206.991 163.831 212.157 150.96 215.89C144.532 217.775 138.001 219.291 131.4 220.43C124.765 221.555 118.064 222.25 111.34 222.51C104.542 222.762 97.7356 222.41 90.9999 221.46C84.0637 220.504 77.3172 218.48 70.9999 215.46C67.6931 213.876 64.6289 211.829 61.8999 209.38C59.0316 206.838 56.7258 203.725 55.1299 200.24C53.5615 196.75 52.832 192.942 52.9999 189.12C53.2025 185.483 54.0489 181.911 55.4999 178.57C58.3871 172.388 62.4375 166.82 67.4299 162.17C68.0299 161.6 68.6199 161.01 69.2299 160.46L71.1099 158.84C72.3299 157.74 73.6699 156.77 74.9499 155.74C76.2299 154.71 77.6199 153.85 78.9499 152.9C80.2799 151.95 81.6999 151.13 83.0799 150.27L79.5599 153.65C78.4399 154.82 77.2799 155.94 76.1999 157.13C73.9958 159.447 71.9258 161.887 69.9999 164.44C68.084 166.93 66.3431 169.549 64.7899 172.28C63.2934 174.934 62.0929 177.744 61.2099 180.66C59.4999 186.34 59.7299 192.16 62.3599 196.66C63.7086 198.965 65.5036 200.978 67.6399 202.58C69.9054 204.276 72.3789 205.674 74.9999 206.74C80.5743 208.891 86.4262 210.238 92.3799 210.74C98.5141 211.31 104.684 211.381 110.83 210.95C123.298 210.069 135.634 207.836 147.62 204.29C159.682 200.82 171.382 196.198 182.56 190.49C193.62 184.71 204.22 177.85 212.96 169.26C217.304 165.114 220.957 160.3 223.78 155C225.08 152.452 225.971 149.715 226.42 146.89C226.821 144.138 226.612 141.332 225.81 138.67C224.965 135.916 223.528 133.38 221.6 131.24C219.546 129.003 217.19 127.065 214.6 125.48C211.897 123.823 209.037 122.44 206.06 121.35C203.021 120.211 199.919 119.246 196.77 118.46Z" fill="#BFEAEF"/>
<path d="M173.17 3.17369L140.185 162.73L146.061 163.945L179.046 4.38837L173.17 3.17369Z" fill="#156CBF"/>
<path d="M150.689 151.471L140.829 149.427L138.396 161.168L148.256 163.211L150.689 151.471Z" fill="#075493"/>
<path d="M180.732 1.59678L172.996 -0.0065918L166.552 31.0826L174.288 32.686L180.732 1.59678Z" fill="#075493"/>
<path d="M160.84 171.92L124 168C124.373 164.484 126.126 161.26 128.875 159.036C131.624 156.812 135.144 155.77 138.66 156.14L149 157.26C152.516 157.633 155.74 159.386 157.964 162.135C160.188 164.884 161.23 168.404 160.86 171.92H160.84Z" fill="#156CBF"/>
<path d="M193.89 159.53C196.179 158.461 198.656 157.853 201.18 157.74C198.655 157.624 196.178 157.013 193.89 155.94C192.821 153.651 192.213 151.174 192.1 148.65C191.984 151.175 191.372 153.652 190.3 155.94C188.015 157.011 185.541 157.623 183.02 157.74C185.54 157.854 188.014 158.462 190.3 159.53C191.372 161.818 191.984 164.295 192.1 166.82C192.213 164.296 192.821 161.819 193.89 159.53Z" fill="#BFEAEF"/>
<path d="M184.92 111C188.622 109.271 192.628 108.286 196.71 108.1C192.35 108.1 187.78 106.45 184.92 105.19C183.182 101.49 182.19 97.4836 182 93.4C181.815 97.4788 180.829 101.481 179.1 105.18C176.24 106.44 171.67 108.09 167.31 108.09C171.392 108.276 175.398 109.261 179.1 110.99C180.83 114.692 181.816 118.698 182 122.78C182.192 118.7 183.184 114.697 184.92 111Z" fill="#BFEAEF"/>
<path d="M110.1 140.72C113.6 139.18 119.19 137.16 124.54 137.16C119.19 137.16 113.6 135.16 110.1 133.6C108.55 130.1 106.54 124.51 106.54 119.16C106.54 124.51 104.54 130.1 102.98 133.6C99.4799 135.15 93.8899 137.16 88.5399 137.16C93.8899 137.16 99.4799 139.16 102.98 140.72C104.53 144.23 106.54 149.81 106.54 155.16C106.54 149.81 108.55 144.23 110.1 140.72Z" fill="#BFEAEF"/>
</g>
<path d="M16.72 297.48C14.56 297.48 12.5467 297.133 10.68 296.44C8.84 295.72 7.24 294.707 5.88 293.4C4.52 292.093 3.45333 290.56 2.68 288.8C1.93333 287.04 1.56 285.107 1.56 283C1.56 280.893 1.93333 278.96 2.68 277.2C3.45333 275.44 4.52 273.907 5.88 272.6C7.26667 271.293 8.88 270.293 10.72 269.6C12.56 268.88 14.5733 268.52 16.76 268.52C19.1867 268.52 21.3733 268.947 23.32 269.8C25.2933 270.627 26.9467 271.853 28.28 273.48L24.12 277.32C23.16 276.227 22.0933 275.413 20.92 274.88C19.7467 274.32 18.4667 274.04 17.08 274.04C15.7733 274.04 14.5733 274.253 13.48 274.68C12.3867 275.107 11.44 275.72 10.64 276.52C9.84 277.32 9.21333 278.267 8.76 279.36C8.33333 280.453 8.12 281.667 8.12 283C8.12 284.333 8.33333 285.547 8.76 286.64C9.21333 287.733 9.84 288.68 10.64 289.48C11.44 290.28 12.3867 290.893 13.48 291.32C14.5733 291.747 15.7733 291.96 17.08 291.96C18.4667 291.96 19.7467 291.693 20.92 291.16C22.0933 290.6 23.16 289.76 24.12 288.64L28.28 292.48C26.9467 294.107 25.2933 295.347 23.32 296.2C21.3733 297.053 19.1733 297.48 16.72 297.48ZM32.6559 297V269H39.1359V291.72H53.1759V297H32.6559ZM62.7566 280.28H76.2366V285.32H62.7566V280.28ZM63.2366 291.8H78.4766V297H56.7966V269H77.9566V274.2H63.2366V291.8ZM79.9525 297L92.4325 269H98.8325L111.353 297H104.553L94.3125 272.28H96.8725L86.5925 297H79.9525ZM86.1925 291L87.9125 286.08H102.313L104.073 291H86.1925ZM114.258 297V269H119.618L136.138 289.16H133.537V269H139.938V297H134.618L118.058 276.84H120.658V297H114.258Z" fill="#075493"/>
<path d="M177.09 269H183.57V297H177.09V269ZM164.37 297H157.89V269H164.37V297ZM177.57 285.52H163.89V280.04H177.57V285.52ZM203.795 297.48C201.582 297.48 199.528 297.12 197.635 296.4C195.768 295.68 194.142 294.667 192.755 293.36C191.395 292.053 190.328 290.52 189.555 288.76C188.808 287 188.435 285.08 188.435 283C188.435 280.92 188.808 279 189.555 277.24C190.328 275.48 191.408 273.947 192.795 272.64C194.182 271.333 195.808 270.32 197.675 269.6C199.542 268.88 201.568 268.52 203.755 268.52C205.968 268.52 207.995 268.88 209.835 269.6C211.702 270.32 213.315 271.333 214.675 272.64C216.062 273.947 217.142 275.48 217.915 277.24C218.688 278.973 219.075 280.893 219.075 283C219.075 285.08 218.688 287.013 217.915 288.8C217.142 290.56 216.062 292.093 214.675 293.4C213.315 294.68 211.702 295.68 209.835 296.4C207.995 297.12 205.982 297.48 203.795 297.48ZM203.755 291.96C205.008 291.96 206.155 291.747 207.195 291.32C208.262 290.893 209.195 290.28 209.995 289.48C210.795 288.68 211.408 287.733 211.835 286.64C212.288 285.547 212.515 284.333 212.515 283C212.515 281.667 212.288 280.453 211.835 279.36C211.408 278.267 210.795 277.32 209.995 276.52C209.222 275.72 208.302 275.107 207.235 274.68C206.168 274.253 205.008 274.04 203.755 274.04C202.502 274.04 201.342 274.253 200.275 274.68C199.235 275.107 198.315 275.72 197.515 276.52C196.715 277.32 196.088 278.267 195.635 279.36C195.208 280.453 194.995 281.667 194.995 283C194.995 284.307 195.208 285.52 195.635 286.64C196.088 287.733 196.702 288.68 197.475 289.48C198.275 290.28 199.208 290.893 200.275 291.32C201.342 291.747 202.502 291.96 203.755 291.96ZM223.945 297V269H229.305L241.225 288.76H238.385L250.105 269H255.425L255.505 297H249.425L249.385 278.32H250.505L241.145 294.04H238.225L228.665 278.32H230.025V297H223.945ZM268.108 280.28H281.588V285.32H268.108V280.28ZM268.588 291.8H283.828V297H262.148V269H283.308V274.2H268.588V291.8Z" fill="#BFEAEF"/>
<defs>
<clipPath id="clip0_3_221">
<rect width="180.25" height="242.27" fill="white" transform="translate(53)"/>
</clipPath>
</defs>
</svg>
