<svg width="181" height="243" viewBox="0 0 181 243" fill="none" xmlns="http://www.w3.org/2000/svg">
<g clip-path="url(#clip0_3_245)">
<path d="M144.81 225.71C139.02 223.84 132.09 218.56 129.23 204.48C126.251 204.044 123.239 203.877 120.23 203.98C121.63 208.54 123.1 213.2 124.56 217.69C128.33 229.25 142.56 234.91 154.08 233.69C157.88 233.393 161.534 232.096 164.67 229.93C163.704 228.101 162.636 226.328 161.47 224.62C158.232 225.937 154.775 226.635 151.28 226.68C149.086 226.695 146.903 226.368 144.81 225.71Z" fill="#AFDFE2"/>
<path d="M145.73 222.85C150.3 224.32 155.28 223.7 159.64 222.11C152.932 213.327 143.269 207.27 132.44 205.06C134.64 214.63 139.14 220.73 145.73 222.85Z" fill="#AFDFE2"/>
<path d="M113.81 193.14C110.33 181.44 107.81 172.47 107.81 172.32L107.14 170.01L99.7699 169.43C100.71 177.18 101.97 186.37 103.63 196.92C107.08 195.75 110.46 194.48 113.81 193.14Z" fill="#BFEAEF"/>
<path d="M94.62 199.76C96.68 199.16 98.73 198.52 100.77 197.86C99.02 186.79 97.77 177.21 96.77 169.18L87.07 168.42C86.9 169.67 86.73 170.92 86.56 172.15C85 183 83.62 193.31 83 202.72C86.9133 201.853 90.7867 200.867 94.62 199.76Z" fill="#BFEAEF"/>
<path d="M80 203.38C80.56 193.63 82 182.96 83.58 171.74C83.74 170.57 83.9 169.38 84.06 168.18L71.81 167.18C65.27 181.827 61 194.873 59 206.32C66.0566 205.799 73.0716 204.817 80 203.38Z" fill="#BFEAEF"/>
<path d="M55.9999 206.51C57.8599 195.51 61.7199 183.14 67.5999 169.37C66.1699 170.37 64.7699 171.37 63.4099 172.37C58.0866 176.259 53.8667 181.467 51.1649 187.48C48.4632 193.494 47.3724 200.107 47.9999 206.67C50.6199 206.72 53.3099 206.65 55.9999 206.51Z" fill="#BFEAEF"/>
<path d="M55 214.34H53.34L49.72 215.34C50.9162 219.102 52.6545 222.669 54.88 225.93C54.6163 222.069 54.6564 218.194 55 214.34Z" fill="#A4DADD"/>
<path d="M76.6199 211.9C70.4547 212.933 64.2339 213.601 57.9899 213.9C57.4506 219.261 57.5749 224.669 58.3599 230C61.9899 233.945 66.4124 237.078 71.3377 239.194C76.263 241.31 81.5799 242.362 86.9399 242.28H88.2999C81.9599 234.4 79.8099 223.79 79.7599 211.28C78.7099 211.51 77.6699 211.72 76.6199 211.9Z" fill="#A4DADD"/>
<path d="M102.44 209.23C102.29 208.02 102.12 206.8 101.95 205.55C100.04 206.18 98.11 206.79 96.17 207.36C91.75 208.67 87.27 209.77 82.75 210.72C82.75 223.86 85.06 234.78 92.26 242.26H118.51C117.68 241.84 116.9 241.4 116.16 240.94C105.78 234.48 104.38 223.88 102.44 209.23Z" fill="#A4DADD"/>
<path d="M154.39 236.35C153.267 236.471 152.139 236.531 151.01 236.53C139.01 236.53 125.58 230.17 121.7 218.29C119.77 212.37 117.84 206.17 116.05 200.29C112.37 201.85 108.637 203.283 104.85 204.59C105.05 206.04 105.23 207.45 105.42 208.84C107.8 226.84 109.16 237.11 126.67 242.28H169.79C168.78 238.889 167.524 235.577 166.03 232.37C162.542 234.646 158.541 236.014 154.39 236.35Z" fill="#A4DADD"/>
<path d="M143.77 118.46C150.388 118.704 156.913 120.101 163.05 122.59C166.24 123.916 169.2 125.738 171.82 127.99C174.565 130.373 176.759 133.325 178.25 136.64C179.748 140.056 180.432 143.774 180.25 147.5C180.051 151.136 179.274 154.718 177.95 158.11C176.688 161.403 175.065 164.545 173.11 167.48C171.223 170.375 169.124 173.126 166.83 175.71C162.292 180.782 157.268 185.398 151.83 189.49C146.475 193.552 140.837 197.228 134.96 200.49C123.242 206.991 110.831 212.157 97.9599 215.89C91.5319 217.775 85.0012 219.291 78.3999 220.43C71.7651 221.555 65.0645 222.25 58.3399 222.51C51.5422 222.762 44.7356 222.41 37.9999 221.46C31.0637 220.504 24.3172 218.48 17.9999 215.46C14.6931 213.876 11.6289 211.829 8.89994 209.38C6.03164 206.838 3.72577 203.725 2.12994 200.24C0.561456 196.75 -0.168022 192.942 -5.62258e-05 189.12C0.202466 185.483 1.04893 181.911 2.49994 178.57C5.38714 172.388 9.43753 166.82 14.4299 162.17C15.0299 161.6 15.6199 161.01 16.2299 160.46L18.1099 158.84C19.3299 157.74 20.6699 156.77 21.9499 155.74C23.2299 154.71 24.6199 153.85 25.9499 152.9C27.2799 151.95 28.6999 151.13 30.0799 150.27L26.5599 153.65C25.4399 154.82 24.2799 155.94 23.1999 157.13C20.9958 159.447 18.9258 161.887 16.9999 164.44C15.084 166.93 13.3431 169.549 11.7899 172.28C10.2934 174.934 9.09288 177.744 8.20994 180.66C6.49994 186.34 6.72994 192.16 9.35994 196.66C10.7086 198.965 12.5036 200.978 14.6399 202.58C16.9054 204.276 19.3789 205.674 21.9999 206.74C27.5743 208.891 33.4262 210.238 39.3799 210.74C45.5141 211.31 51.6844 211.381 57.8299 210.95C70.2983 210.069 82.6339 207.836 94.6199 204.29C106.682 200.82 118.382 196.198 129.56 190.49C140.62 184.71 151.22 177.85 159.96 169.26C164.304 165.114 167.957 160.3 170.78 155C172.08 152.452 172.971 149.715 173.42 146.89C173.821 144.138 173.612 141.332 172.81 138.67C171.965 135.916 170.528 133.38 168.6 131.24C166.546 129.003 164.19 127.065 161.6 125.48C158.897 123.823 156.037 122.44 153.06 121.35C150.021 120.211 146.919 119.246 143.77 118.46Z" fill="#BFEAEF"/>
<path d="M120.17 3.17369L87.1853 162.73L93.0611 163.945L126.046 4.38837L120.17 3.17369Z" fill="#156CBF"/>
<path d="M97.6894 151.471L87.829 149.427L85.3955 161.168L95.2559 163.211L97.6894 151.471Z" fill="#075493"/>
<path d="M127.732 1.59678L119.996 -0.0065918L113.552 31.0826L121.288 32.686L127.732 1.59678Z" fill="#075493"/>
<path d="M107.84 171.92L71 168C71.3729 164.484 73.1265 161.26 75.8754 159.036C78.6242 156.812 82.1436 155.77 85.66 156.14L96 157.26C99.5161 157.633 102.74 159.386 104.964 162.135C107.188 164.884 108.23 168.404 107.86 171.92H107.84Z" fill="#156CBF"/>
<path d="M140.89 159.53C143.179 158.461 145.656 157.853 148.18 157.74C145.655 157.624 143.178 157.013 140.89 155.94C139.821 153.651 139.213 151.174 139.1 148.65C138.984 151.175 138.372 153.652 137.3 155.94C135.015 157.011 132.541 157.623 130.02 157.74C132.54 157.854 135.014 158.462 137.3 159.53C138.372 161.818 138.984 164.295 139.1 166.82C139.213 164.296 139.821 161.819 140.89 159.53Z" fill="#BFEAEF"/>
<path d="M131.92 111C135.622 109.271 139.628 108.286 143.71 108.1C139.35 108.1 134.78 106.45 131.92 105.19C130.182 101.49 129.19 97.4836 129 93.4C128.815 97.4788 127.829 101.481 126.1 105.18C123.24 106.44 118.67 108.09 114.31 108.09C118.392 108.276 122.398 109.261 126.1 110.99C127.83 114.692 128.816 118.698 129 122.78C129.192 118.7 130.184 114.697 131.92 111Z" fill="#BFEAEF"/>
<path d="M57.0999 140.72C60.5999 139.18 66.1899 137.16 71.5399 137.16C66.1899 137.16 60.5999 135.16 57.0999 133.6C55.5499 130.1 53.5399 124.51 53.5399 119.16C53.5399 124.51 51.5399 130.1 49.9799 133.6C46.4799 135.15 40.8899 137.16 35.5399 137.16C40.8899 137.16 46.4799 139.16 49.9799 140.72C51.5299 144.23 53.5399 149.81 53.5399 155.16C53.5399 149.81 55.5499 144.23 57.0999 140.72Z" fill="#BFEAEF"/>
</g>
<defs>
<clipPath id="clip0_3_245">
<rect width="180.25" height="242.27" fill="white"/>
</clipPath>
</defs>
</svg>
